    <svg width="24"
              height="23"
              viewBox="0 0 24 23"
              fill="none"
              xmlns="http://www.w3.org/2000/svg">
              <mask
                id="mask0_203_93"
                style="mask-type:luminance"
                maskUnits="userSpaceOnUse"
                x="0"
                y="0"
                width="24"
                height="23">
                <path
                  d="M0.828613 0L0.828613 23H23.8286V0H0.828613Z"
                  fill="white"
                />
              </mask>
              <g mask="url(#mask0_203_93)">
                <path
                  d="M8.45715 7.419H13.9035L14.1181 7.62777L15.1018 8.58444C15.1045 8.58679 15.1075 8.58876 15.1108 8.59027L22.6229 15.8989C23.1741 16.4376 23.5426 17.1274 23.679 17.8757C23.8154 18.624 23.7132 19.395 23.3861 20.0852C23.3844 20.0915 23.3813 20.0975 23.3771 20.1026C23.3754 20.1041 23.3743 20.1061 23.3741 20.1084C23.1887 20.4947 22.9344 20.8461 22.6229 21.1462C22.5056 21.261 22.3801 21.3676 22.2473 21.4651C22.2446 21.4675 22.2416 21.4694 22.2384 21.4709C22.231 21.4783 22.223 21.4851 22.2145 21.4912C21.4793 22.0261 20.5707 22.2857 19.6548 22.2223C18.739 22.159 17.8772 21.777 17.2273 21.1462L10.523 14.6233C10.5197 14.6218 10.5167 14.6198 10.5141 14.6175L9.5959 13.7245L8.45715 12.6171V7.419Z"
                  fill="url(#paint0_linear_203_93)"
                />
                <path
                  d="M4.66518 8.52942e-05H20.0114C20.5282 -0.000117643 21.0396 0.101758 21.5147 0.299564C21.9897 0.497369 22.4186 0.78696 22.7751 1.15077C23.1316 1.51458 23.4084 1.94503 23.5888 2.41602C23.7691 2.88698 23.8492 3.3887 23.8241 3.89068C23.7652 4.75922 23.399 5.58114 22.7877 6.21689C22.1764 6.85263 21.3577 7.263 20.4705 7.37829L20.4691 7.37739L20.4675 7.37708L20.4659 7.37739L20.4645 7.37829V7.38119H20.4586C20.4466 7.3825 20.4346 7.38444 20.4228 7.38699C20.2497 7.40781 20.0755 7.41845 19.9011 7.41888L8.45702 7.41888V19.1834C8.45634 20.0465 8.16062 20.8848 7.61638 21.5665L7.6134 21.5694C7.6134 21.5723 7.61042 21.5752 7.60744 21.5781C7.60445 21.581 7.59849 21.5868 7.59253 21.5926C7.58585 21.5987 7.57986 21.6055 7.57464 21.6129C7.24479 22.0203 6.82918 22.3545 6.35565 22.593C5.88214 22.8315 5.36166 22.9688 4.82913 22.9957C4.31303 23.0198 3.79727 22.9418 3.31309 22.7663C2.82892 22.5908 2.38641 22.3216 2.01238 21.9749C1.63834 21.6283 1.34056 21.2113 1.13709 20.7494C0.933608 20.2875 0.828665 19.7903 0.828613 19.2878L0.828613 3.73123C0.828496 3.24122 0.927656 2.75597 1.12042 2.30325C1.31318 1.85049 1.59577 1.43914 1.95206 1.09264C2.30834 0.746141 2.73132 0.471305 3.19685 0.283849C3.66238 0.0963934 4.16133 -3.06697e-05 4.66518 8.52942e-05Z"
                  fill="url(#paint1_linear_203_93)"
                />
                <g style="mix-blend-mode:screen" opacity="0.3">
                  <g style="mix-blend-mode:screen" opacity="0.3">
                    <path
                      d="M4.66516 0.870009H4.78738L4.78738 22.1259H4.74863C4.73014 22.1259 4.70302 22.1259 4.66903 22.1259C4.28332 22.1302 3.90056 22.06 3.54297 21.9193C3.18538 21.7786 2.8601 21.5702 2.58601 21.3063C2.31192 21.0423 2.09448 20.728 1.94632 20.3816C1.79815 20.0353 1.72221 19.6637 1.72291 19.2886L1.72291 3.732C1.72338 2.97322 2.0335 2.24557 2.58516 1.70898C3.13682 1.17236 3.88491 0.870618 4.66516 0.870009Z"
                      fill="white"
                    />
                  </g>
                </g>
                <g style="mix-blend-mode:screen" opacity="0.2">
                  <path
                    d="M11.0714 9.96145L21.964 20.5548C21.964 20.5548 21.955 20.5634 21.9342 20.5808C21.9238 20.5938 21.9118 20.6055 21.8984 20.6156C21.3429 21.1088 20.6135 21.3752 19.8615 21.3596C19.1094 21.3439 18.3924 21.0474 17.8591 20.5316L11.1012 13.9564C11.0803 13.939 11.0714 13.9303 11.0714 13.9303V9.96145Z"
                    fill="white"
                  />
                </g>
                <g style="mix-blend-mode:multiply" opacity="0.2">
                  <path
                    d="M8.45709 7.41846H13.9034L14.118 7.62719L15.1018 8.5839H9.59584V13.724L8.45709 12.6165V7.41846Z"
                    fill="black"
                  />
                </g>
                <g style="mix-blend-mode:screen" opacity="0.6">
                  <path
                    d="M1.72291 3.73115C1.72291 3.73115 1.73483 4.04715 1.75272 4.59798C1.76464 5.14881 1.79445 5.93737 1.80638 6.88247C1.8183 7.82758 1.84811 8.92924 1.85109 10.1092C1.85407 11.2891 1.86599 12.5502 1.87196 13.8113C1.86599 15.0724 1.85705 16.3306 1.85109 17.5135C1.84513 18.1049 1.83916 18.676 1.83022 19.2152C1.80881 19.7105 1.92518 20.2023 2.16708 20.6387C2.37627 21.0075 2.66386 21.3287 3.0107 21.5809C3.28254 21.7749 3.58724 21.9211 3.91096 22.0129C4.12118 22.0703 4.33698 22.1063 4.55486 22.1201C4.59958 22.1227 4.63743 22.1242 4.66903 22.1251C4.28332 22.1294 3.90056 22.0592 3.54297 21.9185C3.18538 21.7778 2.8601 21.5694 2.58601 21.3054C2.31192 21.0414 2.09448 20.7271 1.94632 20.3808C1.79815 20.0344 1.72221 19.6629 1.72291 19.2877L1.72291 3.73115Z"
                    fill="white"
                  />
                </g>
                <g style="mix-blend-mode:screen" opacity="0.6">
                  <path
                    d="M11.1011 13.9563C11.1608 14.0084 11.3068 14.1389 11.5215 14.3274C11.8047 14.5854 12.216 14.9449 12.693 15.3913C13.17 15.8378 13.7393 16.3538 14.3266 16.9192C14.9198 17.4845 15.5488 18.0875 16.1778 18.6934C16.4878 18.9978 16.7978 19.3051 17.1049 19.6066C17.4119 19.9081 17.71 20.2096 18.0022 20.4879C18.2774 20.7452 18.6014 20.948 18.9561 21.0852C19.2792 21.208 19.6227 21.2729 19.9696 21.2765C20.2642 21.2787 20.5575 21.2387 20.8401 21.1576C21.06 21.0936 21.2719 21.0061 21.4721 20.8967C21.6001 20.8231 21.7226 20.7407 21.8387 20.6503C21.8692 20.6254 21.901 20.6022 21.9341 20.5807C21.9237 20.5937 21.9117 20.6054 21.8984 20.6155C21.3428 21.1087 20.6135 21.3751 19.8614 21.3595C19.1094 21.3438 18.3924 21.0473 17.8591 20.5314L11.1011 13.9563Z"
                    fill="white"
                  />
                </g>
                <g style="mix-blend-mode:screen" opacity="0.6">
                  <path
                    d="M10.5228 14.6232C10.6063 14.6899 11.3128 15.2493 12.2906 16.1104C12.8152 16.5655 13.4174 17.1077 14.0523 17.6962C14.3683 17.9948 14.7022 18.2934 15.0271 18.6094C15.3521 18.9254 15.6889 19.2443 16.0228 19.5661C16.3507 19.8879 16.6786 20.2126 17.0035 20.5344C17.1645 20.691 17.3225 20.8504 17.4775 21.0041C17.624 21.1471 17.7826 21.2781 17.9515 21.3955C18.2747 21.6185 18.6332 21.7889 19.0128 21.8999C19.3578 21.9985 19.7145 22.0531 20.074 22.0622C20.3816 22.0635 20.6884 22.0323 20.9892 21.9695C21.2241 21.9144 21.4544 21.8417 21.6778 21.752C21.7702 21.7114 21.8507 21.6738 21.9222 21.6419C21.9938 21.61 22.0534 21.5723 22.1011 21.5462C22.1726 21.5085 22.2203 21.4795 22.2382 21.4708C22.2308 21.4782 22.2229 21.485 22.2144 21.4911C21.4792 22.026 20.5705 22.2856 19.6547 22.2222C18.7388 22.1588 17.8771 21.7768 17.2271 21.1461L10.5228 14.6232Z"
                    fill="white"
                  />
                </g>
                <g style="mix-blend-mode:multiply" opacity="0.3">
                  <path
                    d="M15.1016 8.58436C15.1043 8.58671 15.1073 8.58865 15.1106 8.59016L22.6227 15.8988C23.1739 16.4375 23.5424 17.1273 23.6788 17.8756C23.8152 18.6239 23.713 19.3949 23.3859 20.0851C23.3826 20.0931 23.3786 20.1009 23.3739 20.1083C23.4493 19.9088 23.5062 19.7031 23.5438 19.4937C23.6489 18.9549 23.6357 18.4007 23.5051 17.8673C23.4161 17.5207 23.2776 17.1879 23.0937 16.8787C22.9952 16.7116 22.8814 16.5535 22.7539 16.4061C22.6883 16.3279 22.6227 16.2641 22.5512 16.1858L22.4349 16.0727L22.3187 15.9655C21.9967 15.6611 21.6569 15.3538 21.323 15.032C20.9891 14.7102 20.6463 14.3826 20.3065 14.055C19.9666 13.7274 19.6328 13.3911 19.3019 13.0664C18.971 12.7417 18.655 12.4112 18.342 12.0981C17.7249 11.4661 17.1526 10.866 16.6726 10.347C15.7068 9.31174 15.1016 8.58436 15.1016 8.58436Z"
                    fill="black"
                  />
                </g>
                <g style="mix-blend-mode:multiply" opacity="0.3">
                  <path
                    d="M20.4649 7.37798V7.3811H20.4586C20.4603 7.3794 20.4625 7.3783 20.4649 7.37798Z"
                    fill="black"
                  />
                </g>
                <g style="mix-blend-mode:multiply" opacity="0.3">
                  <path
                    d="M5.12421 8.87417e-05L20.0114 8.87417e-05C20.5282 -0.000114195 21.0396 0.101788 21.5146 0.299565C21.9897 0.49737 22.4185 0.786962 22.775 1.15077C23.1316 1.51458 23.4084 1.94504 23.5887 2.41602C23.7691 2.88701 23.8491 3.3887 23.8241 3.89068C23.7652 4.75922 23.399 5.58114 22.7877 6.21689C22.1763 6.85263 21.3576 7.26303 20.4705 7.3783C20.5152 7.3667 20.5957 7.34641 20.7119 7.32031C20.9792 7.25053 21.2388 7.15538 21.487 7.0362C21.8709 6.85478 22.2206 6.61172 22.5214 6.31723C22.909 5.94495 23.2081 5.49475 23.3978 4.99814C23.5045 4.72034 23.5717 4.42968 23.5975 4.1342L23.6154 3.89068C23.6154 3.8153 23.6124 3.73993 23.6095 3.66165C23.6067 3.50121 23.5908 3.34124 23.5618 3.1833C23.4383 2.51236 23.1184 1.89033 22.6406 1.39166C22.3916 1.13117 22.1031 0.909217 21.7851 0.73356C21.4572 0.560252 21.106 0.432403 20.7417 0.353779C20.5558 0.319077 20.3675 0.297768 20.1783 0.289999L20.0263 0.284201C20.0054 0.281302 19.9309 0.284201 19.8862 0.284201H19.5791C19.1678 0.287101 18.7534 0.2871 18.342 0.289999C17.5133 0.2842 16.6876 0.281301 15.8767 0.278402C15.0629 0.269705 14.261 0.261008 13.4889 0.252311C11.9388 0.232017 10.493 0.203026 9.25291 0.165337C8.01579 0.133447 6.98138 0.0812642 6.25997 0.0551723C5.53559 0.0232822 5.12421 8.87417e-05 5.12421 8.87417e-05Z"
                    fill="black"
                  />
                </g>
                <g style="mix-blend-mode:screen" opacity="0.6">
                  <path
                    d="M0.828613 7.00431C0.828613 7.00431 0.855443 7.3406 0.885253 7.92622C0.915063 8.51184 0.965742 9.35258 0.998533 10.3586C1.03729 11.3617 1.07008 12.5358 1.09094 13.794C1.09691 14.4231 1.11479 15.0725 1.11479 15.7306C1.12075 16.3916 1.12373 17.0613 1.12671 17.731C1.12373 18.0673 1.12374 18.4036 1.12076 18.737L1.11777 19.2356C1.12373 19.398 1.12672 19.5458 1.1446 19.6995C1.21274 20.297 1.43866 20.8673 1.80043 21.3548C2.14136 21.816 2.59118 22.1909 3.11207 22.4478C3.23507 22.51 3.3626 22.5633 3.49364 22.6073C3.61801 22.6542 3.74548 22.6929 3.87521 22.7232C3.94079 22.7377 4.00339 22.7551 4.06599 22.7696L4.2538 22.7957C4.3164 22.8044 4.37602 22.816 4.43862 22.8218C4.50122 22.8276 4.56978 22.8276 4.63537 22.8276C5.44918 22.8646 6.25221 22.6349 6.91584 22.1753C7.104 22.0439 7.2814 21.8985 7.44646 21.7404C7.5031 21.6853 7.54483 21.6419 7.57464 21.6129C7.2448 22.0203 6.82918 22.3545 6.35565 22.593C5.88214 22.8315 5.36166 22.9688 4.82913 22.9957C4.31303 23.0198 3.79727 22.9418 3.31309 22.7663C2.82892 22.5908 2.38641 22.3216 2.01238 21.9749C1.63834 21.6283 1.34056 21.2113 1.13709 20.7494C0.933608 20.2875 0.828665 19.7903 0.828613 19.2878L0.828613 7.00431Z"
                    fill="white"
                  />
                </g>
                <g style="mix-blend-mode:multiply" opacity="0.3">
                  <path
                    d="M8.45715 7.41877H13.9035L14.1181 7.62754L13.6709 7.63911C12.8035 7.6623 11.933 7.6739 11.0655 7.68839C10.2935 7.70289 9.52436 7.69999 8.75227 7.70578C8.75525 8.53493 8.74631 9.36117 8.74333 10.1903C8.73141 11.0774 8.71948 11.9646 8.69862 12.8517L8.45715 12.6169V7.41877Z"
                    fill="black"
                  />
                </g>
                <g style="mix-blend-mode:screen" opacity="0.4">
                  <path
                    d="M8.16484 7.12894L8.45698 7.13184C9.32744 7.13764 10.1949 7.13474 11.0654 7.15213C11.9328 7.16373 12.8033 7.17533 13.6708 7.19852L14.9765 7.23621L16.2792 7.28259C17.1466 7.32898 18.0171 7.35797 18.8846 7.41885H8.45698V18.505C8.38842 17.5802 8.35563 16.6583 8.30793 15.7335C8.26918 14.8087 8.23937 13.8867 8.2185 12.9619C8.19764 12.0371 8.18571 11.1152 8.17081 10.1904C8.16783 9.26558 8.1559 8.34366 8.16186 7.41885L8.16484 7.12894Z"
                    fill="white"
                  />
                </g>
              </g>
              <defs>
                <linearGradient
                  id="paint0_linear_203_93"
                  x1="22.8669"
                  y1="21.4911"
                  x2="9.40112"
                  y2="7.35564"
                  gradientUnits="userSpaceOnUse">
                  <stop stop-color="white" />
                  <stop offset="1" stop-color="#F5F5F5" />
                </linearGradient>
                <linearGradient
                  id="paint1_linear_203_93"
                  x1="1.15061"
                  y1="11.5"
                  x2="23.1616"
                  y2="11.5"
                  gradientUnits="userSpaceOnUse">
                  <stop offset="0.9999" stop-color="#F5F5F5" />
                  <stop offset="1" stop-color="#1B2533" />
                </linearGradient>
              </defs>
            </svg>